Jump_normalized_Motion_pl13
version=1
nRows=18
nColumns=43
inDegrees=yes
endheader
time		pelvis_tilt		pelvis_list		pelvis_rotation		pelvis_tx		pelvis_ty		pelvis_tz		hip_flexion_r		hip_adduction_r		hip_rotation_r		knee_angle_r		ankle_angle_r		subtalar_angle_r		mtp_angle_r		hip_flexion_l		hip_adduction_l		hip_rotation_l		knee_angle_l		ankle_angle_l		subtalar_angle_l		mtp_angle_l		lumbar_extension		lumbar_bending		lumbar_rotation		neck_flexion		neck_lateral_bending		neck_rotation		arm_flex_r		arm_add_r		arm_rot_r		elbow_flex_r		pro_sup_r		wrist_flex_r		wrist_dev_r		hand_finger_flex_r		arm_flex_l		arm_add_l		arm_rot_l		elbow_flex_l		pro_sup_l		wrist_flex_l		wrist_dev_l		hand_finger_flex_l		
0.867500		-0.894187		-1.011163		87.498322		0.062255		1.752909		1.912130		85.764860		-4.465060		3.252377		-151.370379		24.604105		6.489350		11.151251		83.776165		-8.344683		11.272089		-150.890094		22.314994		24.442280		24.142155		-62.135448		-4.411677		1.307562		34.957856		2.940504		-5.397279		27.945900		-21.729631		-10.311593		75.058558		102.797331		-1.834564		-19.634602		-13.560876		35.934640		-18.540346		-3.298320		64.010943		107.241646		-16.654445		-11.854702		3.886358		
0.870657		-0.922262		-1.200681		87.506257		0.062297		1.752897		1.910749		85.790030		-4.463413		3.257959		-151.376410		24.580196		6.435053		11.141716		83.747872		-8.299451		11.273446		-150.882446		22.393834		24.477236		24.185223		-61.982792		-4.438834		1.293941		35.166779		2.963574		-5.372251		28.795632		-22.022888		-10.078278		75.444262		102.705996		-1.868060		-19.523437		-13.504641		36.900716		-18.767201		-2.861533		64.207231		107.303615		-16.699248		-11.708850		3.802976		
0.873813		-0.961404		-1.351368		87.522733		0.062382		1.752943		1.909337		85.774310		-4.464985		3.253612		-151.392341		24.529536		6.306631		11.120732		83.668835		-8.249031		11.267875		-150.870485		22.468941		24.534214		24.285843		-61.869453		-4.476802		1.301820		35.324479		2.996970		-5.363805		29.596084		-22.343669		-9.858512		75.943455		102.481095		-2.033630		-19.274144		-13.416355		37.933163		-19.085036		-2.132309		64.428237		107.261746		-16.979413		-11.428837		3.584031		
0.876970		-0.979266		-1.542276		87.531668		0.062433		1.752956		1.907899		85.801122		-4.446328		3.253587		-151.398342		24.479040		6.222713		11.102994		83.644829		-8.199898		11.280972		-150.861397		22.489818		24.576055		24.370587		-61.711758		-4.501044		1.312746		35.518511		3.022672		-5.373843		30.467219		-22.623823		-9.654283		76.356776		102.324198		-2.132777		-19.098908		-13.318772		38.963476		-19.340305		-1.531957		64.602216		107.200903		-17.172538		-11.240381		3.424603		
0.880126		-0.978301		-1.772811		87.544752		0.062464		1.752902		1.906438		85.867298		-4.425148		3.245873		-151.401766		24.434561		6.200469		11.093800		83.680602		-8.150484		11.313007		-150.857335		22.476677		24.599942		24.410809		-61.509332		-4.498424		1.308893		35.726034		3.042366		-5.359347		31.407601		-22.901641		-9.415429		76.699376		102.315924		-2.084079		-19.051455		-13.236947		39.983759		-19.629010		-1.007538		64.758317		107.230477		-17.126195		-11.193811		3.400184		
0.883283		-0.982442		-1.984232		87.566161		0.062512		1.752856		1.904937		85.910082		-4.415775		3.233818		-151.412378		24.383412		6.144532		11.082730		83.698800		-8.099293		11.344690		-150.856339		22.437491		24.640545		24.459693		-61.319460		-4.491279		1.317413		35.908522		3.057564		-5.352402		32.347673		-23.188946		-9.191304		77.061702		102.267089		-2.061296		-18.968159		-13.158717		41.068302		-19.956369		-0.344046		64.885642		107.240262		-17.151190		-11.100980		3.337219		
0.886439		-0.988439		-2.193695		87.583967		0.062571		1.752837		1.903411		85.939711		-4.405520		3.222834		-151.418281		24.340159		6.071506		11.072893		83.714552		-8.052464		11.373980		-150.849014		22.371025		24.691156		24.514662		-61.127028		-4.487395		1.342395		36.071012		3.054419		-5.369903		33.294909		-23.476564		-8.976636		77.436201		102.175923		-2.055015		-18.871999		-13.079289		42.201095		-20.241466		0.354046		64.970548		107.229814		-17.240356		-10.990871		3.250040		
0.889596		-0.995311		-2.404485		87.596974		0.062645		1.752802		1.901857		85.958835		-4.388375		3.217697		-151.421903		24.314210		5.991633		11.066582		83.734983		-8.015143		11.401526		-150.846369		22.287530		24.745606		24.578122		-60.924458		-4.485577		1.388816		36.204064		3.023685		-5.410012		34.243479		-23.774345		-8.774104		77.817905		102.040199		-2.066964		-18.770141		-12.992657		43.380053		-20.459137		1.046499		65.005492		107.216931		-17.378214		-10.886254		3.155354		
0.892753		-1.008829		-2.634355		87.594208		0.062718		1.752808		1.900310		85.991405		-4.375098		3.216131		-151.412099		24.307324		5.933450		11.065897		83.770564		-7.987078		11.428043		-150.826607		22.207051		24.792598		24.639114		-60.701082		-4.486498		1.449914		36.322697		2.970039		-5.457009		35.236186		-24.057205		-8.580366		78.198062		101.902524		-2.080397		-18.686036		-12.902142		44.575181		-20.565832		1.626258		64.978069		107.237521		-17.501501		-10.806659		3.088369		
0.895909		-1.019582		-2.866027		87.591950		0.062784		1.752741		1.898727		86.016349		-4.358160		3.226577		-151.408850		24.316252		5.888617		11.071555		83.813501		-7.969242		11.454609		-150.829120		22.130246		24.836973		24.707135		-60.461333		-4.481801		1.529932		36.415663		2.883613		-5.512218		36.237792		-24.387643		-8.383134		78.569005		101.754530		-2.102625		-18.592672		-12.789823		45.822385		-20.605638		2.191792		64.883339		107.317153		-17.625168		-10.747555		3.045648		
0.899066		-1.012700		-3.044868		87.587673		0.062918		1.752792		1.897124		85.958824		-4.326940		3.213435		-151.394326		24.323997		5.844497		11.103918		83.790795		-7.962109		11.519453		-150.822025		22.045841		24.910788		24.926983		-60.266288		-4.499057		1.782476		36.410374		2.770347		-5.756901		37.078351		-24.853923		-8.309547		79.118728		101.250185		-2.403382		-18.354849		-12.449375		47.290587		-20.494625		3.094649		64.533242		107.513167		-18.193922		-10.768356		2.993453		
0.902222		-1.017430		-3.294910		87.575110		0.062993		1.752758		1.895507		85.990797		-4.309530		3.232385		-151.374745		24.324596		5.833329		11.128989		83.837110		-7.955016		11.554247		-150.816044		21.997091		24.961554		25.065722		-60.014049		-4.507338		1.907141		36.522720		2.689862		-5.872447		38.091329		-25.230003		-8.136299		79.531887		101.015342		-2.520258		-18.238673		-12.180412		48.585060		-20.405131		3.620780		64.374873		107.654977		-18.434262		-10.784193		3.029139		
0.905379		-1.024303		-3.574155		87.570800		0.063001		1.752643		1.893883		86.062381		-4.309053		3.271472		-151.358456		24.322255		5.861640		11.148089		83.920954		-7.932565		11.569521		-150.823006		21.969584		24.981918		25.105085		-59.723720		-4.487448		1.940241		36.632219		2.606747		-5.863718		39.254628		-25.539777		-7.871971		79.810988		101.044364		-2.462872		-18.209990		-12.033479		49.790796		-20.391157		3.967413		64.314341		107.818319		-18.347787		-10.757391		3.115886		
0.908535		-1.020992		-3.833919		87.575162		0.063005		1.752554		1.892245		86.106535		-4.316425		3.300226		-151.338119		24.313942		5.909635		11.176786		83.982697		-7.903164		11.592965		-150.832301		21.942755		24.988795		25.140126		-59.450107		-4.463760		2.000757		36.704047		2.534178		-5.881227		40.420435		-25.878886		-7.620191		80.098088		101.063471		-2.433806		-18.158964		-11.894484		51.056261		-20.397588		4.418201		64.212472		108.046343		-18.292493		-10.738195		3.195115		
0.911692		-1.009303		-4.077548		87.583165		0.063022		1.752485		1.890584		86.130035		-4.326930		3.317443		-151.320433		24.304709		5.966876		11.218441		84.030755		-7.871597		11.618522		-150.844085		21.908755		24.972101		25.170550		-59.194068		-4.442791		2.079967		36.768427		2.475350		-5.921069		41.588211		-26.245764		-7.362216		80.396071		101.059986		-2.437256		-18.086618		-11.765350		52.367820		-20.432693		4.964354		64.088306		108.315829		-18.275945		-10.738165		3.266524		
0.914848		-0.984919		-4.247203		87.594725		0.063076		1.752557		1.888884		86.046829		-4.347651		3.320394		-151.287854		24.304843		6.044287		11.332364		83.977777		-7.831968		11.654051		-150.838971		21.840038		24.868837		25.223737		-59.007006		-4.430892		2.247424		36.676207		2.408715		-6.033204		42.675382		-26.744160		-7.079252		80.808661		100.891789		-2.644504		-17.930835		-11.579745		53.812003		-20.508062		5.866137		63.854672		108.729993		-18.523922		-10.822945		3.348130		
0.918005		-0.988941		-4.540909		87.584862		0.063115		1.752503		1.887168		86.111986		-4.338077		3.327182		-151.262293		24.294296		6.075317		11.383106		84.059985		-7.818433		11.645553		-150.829093		21.786325		24.835357		25.242895		-58.720966		-4.437853		2.288486		36.920613		2.398981		-6.064475		43.924334		-27.017447		-6.815698		81.051060		100.845348		-2.676955		-17.851301		-11.491124		55.118541		-20.474967		6.268543		63.738519		108.876838		-18.543354		-10.811869		3.404283		
0.921162		-0.990761		-4.803870		87.565084		0.063136		1.752437		1.885425		86.146128		-4.325123		3.342315		-151.244564		24.300238		6.105104		11.442909		84.104531		-7.808100		11.648532		-150.816580		21.704963		24.777004		25.263602		-58.449874		-4.440268		2.350409		37.035579		2.357611		-6.072420		45.182143		-27.398101		-6.439548		81.321597		100.789072		-2.720909		-17.743821		-11.410731		56.487004		-20.545203		6.890116		63.599792		109.075283		-18.533429		-10.803664		3.472674		
